<svg xmlns="http://www.w3.org/2000/svg" viewBox="0 0 410 404" fill="none">
  <path d="M399.641 59.5257L225.751 369.056C219.751 379.909 204.25 379.909 198.25 369.056L10.3607 59.5257C3.89356 47.5091 14.3607 33.6787 27.8422 36.6234L204.001 73.8316C205.875 74.2339 207.751 74.2339 209.626 73.8316L382.16 36.6234C395.641 33.6787 406.108 47.5091 399.641 59.5257Z" fill="#646CFF"/>
  <path d="M292.965 0.313664L164.231 25.5324C162.097 25.9351 160.505 27.7737 160.505 29.9499L160.064 165.623C160.064 168.086 162.392 169.899 164.793 169.399L200.721 161.882C203.348 161.342 205.708 163.604 205.239 166.264L194.391 227.813C193.9 230.59 196.45 232.96 199.199 232.255L221.38 226.61C224.129 225.905 226.679 228.275 226.188 231.052L209.657 323.641C208.628 329.397 216.237 332.235 219.262 327.255L221.282 323.906L333.102 100.824C335.84 95.3549 331.102 89.1317 325.103 90.3383L285.711 98.2893C282.939 98.8527 280.51 96.3914 281.123 93.6361L297.143 21.721C297.759 18.9657 295.394 16.5561 292.965 17.1084L292.965 0.313664Z" fill="#FFDD35"/>
</svg>
